999
dxfrw 0.5.4
0
SECTION
2
HEADER
9
$ACADVER
1
AC1021
9
$HANDSEED
5
20000
9
$DWGCODEPAGE
3
ANSI_1252
9
$INSBASE
10
0
20
0
30
0
9
$EXTMIN
10
1e+020
20
1e+020
30
1e+020
9
$EXTMAX
10
-1e+020
20
-1e+020
30
-1e+020
9
$LIMMIN
10
0
20
0
9
$LIMMAX
10
420
20
297
9
$ORTHOMODE
70
0
9
$LTSCALE
40
1
9
$TEXTSTYLE
7
STANDARD
9
$DIMASZ
40
2.5
9
$DIMEXO
40
0.625
9
$DIMEXE
40
1.25
9
$DIMTXT
40
2.5
9
$DIMTSZ
40
0
9
$DIMAUNIT
70
0
9
$DIMADEC
70
0
9
$DIMSTYLE
2
Standard
9
$DIMGAP
40
0.625
9
$DIMTIH
70
0
9
$LUNITS
70
2
9
$LUPREC
70
4
9
$AUNITS
70
0
9
$AUPREC
70
2
9
$SPLINESEGS
70
8
9
$SNAPSTYLE
70
0
9
$PINSBASE
10
0
20
0
30
0
9
$PLIMMIN
10
0
20
0
9
$PLIMMAX
10
210
20
297
9
$INSUNITS
70
4
9
$PSVPSCALE
40
0
0
ENDSEC
0
SECTION
2
CLASSES
0
ENDSEC
0
SECTION
2
TABLES
0
TABLE
2
VPORT
5
8
330
0
100
AcDbSymbolTable
70
1
0
VPORT
5
31
330
2
100
AcDbSymbolTableRecord
100
AcDbViewportTableRecord
2
*ACTIVE
70
0
10
0
20
0
11
1
21
1
12
189.5
22
101.75
13
0
23
0
14
10
24
10
15
10
25
10
16
0
26
0
36
1
17
0
27
0
37
0
40
216
41
1.8125
42
50
43
0
44
0
50
0
51
0
71
0
72
100
73
1
74
3
75
0
76
1
77
0
78
0
281
0
65
1
110
0
120
0
130
0
111
1
121
0
131
0
112
0
122
1
132
0
79
0
146
0
348
10020
60
7
61
5
292
1
282
1
141
0
142
0
63
250
421
3358443
0
ENDTAB
0
TABLE
2
LTYPE
5
5
330
0
100
AcDbSymbolTable
70
4
0
LTYPE
5
14
330
5
100
AcDbSymbolTableRecord
100
AcDbLinetypeTableRecord
2
ByBlock
70
0
3

72
65
73
0
40
0
0
LTYPE
5
15
330
5
100
AcDbSymbolTableRecord
100
AcDbLinetypeTableRecord
2
ByLayer
70
0
3

72
65
73
0
40
0
0
LTYPE
5
16
330
5
100
AcDbSymbolTableRecord
100
AcDbLinetypeTableRecord
2
Continuous
70
0
3
Solid line
72
65
73
0
40
0
0
LTYPE
5
32
330
5
100
AcDbSymbolTableRecord
100
AcDbLinetypeTableRecord
2
DOT
70
0
3
Dot . . . . . . . . . . . . . . . . . . . . . .
72
65
73
2
40
6.35
49
0
74
0
49
-6.35
74
0
0
LTYPE
5
33
330
5
100
AcDbSymbolTableRecord
100
AcDbLinetypeTableRecord
2
DOT2
70
0
3
Dot (.5x) .....................................
72
65
73
2
40
3.175
49
0
74
0
49
-3.175
74
0
0
LTYPE
5
34
330
5
100
AcDbSymbolTableRecord
100
AcDbLinetypeTableRecord
2
DOTX2
70
0
3
Dot (2x) .  .  .  .  .  .  .  .  .  .  .  .  .
72
65
73
2
40
12.7
49
0
74
0
49
-12.7
74
0
0
LTYPE
5
35
330
5
100
AcDbSymbolTableRecord
100
AcDbLinetypeTableRecord
2
DASHED
70
0
3
Dot . . . . . . . . . . . . . . . . . . . . . .
72
65
73
2
40
19.05
49
12.7
74
0
49
-6.35
74
0
0
LTYPE
5
36
330
5
100
AcDbSymbolTableRecord
100
AcDbLinetypeTableRecord
2
DASHED2
70
0
3
Dashed (.5x) _ _ _ _ _ _ _ _ _ _ _ _ _ _ _ _ _
72
65
73
2
40
9.525
49
6.35
74
0
49
-3.175
74
0
0
LTYPE
5
37
330
5
100
AcDbSymbolTableRecord
100
AcDbLinetypeTableRecord
2
DASHEDX2
70
0
3
Dashed (2x) ____  ____  ____  ____  ____  ___
72
65
73
2
40
38.1
49
25.4
74
0
49
-12.7
74
0
0
LTYPE
5
38
330
5
100
AcDbSymbolTableRecord
100
AcDbLinetypeTableRecord
2
DASHDOT
70
0
3
Dash dot __ . __ . __ . __ . __ . __ . __ . __
72
65
73
4
40
25.4
49
12.7
74
0
49
-6.35
74
0
49
0
74
0
49
-6.35
74
0
0
LTYPE
5
39
330
5
100
AcDbSymbolTableRecord
100
AcDbLinetypeTableRecord
2
DASHDOT2
70
0
3
Dash dot (.5x) _._._._._._._._._._._._._._._.
72
65
73
4
40
12.7
49
6.35
74
0
49
-3.175
74
0
49
0
74
0
49
-3.175
74
0
0
LTYPE
5
3A
330
5
100
AcDbSymbolTableRecord
100
AcDbLinetypeTableRecord
2
DASHDOTX2
70
0
3
Dash dot (2x) ____  .  ____  .  ____  .  ___
72
65
73
4
40
50.8
49
25.4
74
0
49
-12.7
74
0
49
0
74
0
49
-12.7
74
0
0
LTYPE
5
3B
330
5
100
AcDbSymbolTableRecord
100
AcDbLinetypeTableRecord
2
DIVIDE
70
0
3
Divide ____ . . ____ . . ____ . . ____ . . ____
72
65
73
6
40
31.75
49
12.7
74
0
49
-6.35
74
0
49
0
74
0
49
-6.35
74
0
49
0
74
0
49
-6.35
74
0
0
LTYPE
5
3C
330
5
100
AcDbSymbolTableRecord
100
AcDbLinetypeTableRecord
2
DIVIDE2
70
0
3
Divide (.5x) __..__..__..__..__..__..__..__.._
72
65
73
6
40
15.875
49
6.35
74
0
49
-3.175
74
0
49
0
74
0
49
-3.175
74
0
49
0
74
0
49
-3.175
74
0
0
LTYPE
5
3D
330
5
100
AcDbSymbolTableRecord
100
AcDbLinetypeTableRecord
2
DIVIDEX2
70
0
3
Divide (2x) ________  .  .  ________  .  .  _
72
65
73
6
40
63.5
49
25.4
74
0
49
-12.7
74
0
49
0
74
0
49
-12.7
74
0
49
0
74
0
49
-12.7
74
0
0
LTYPE
5
3E
330
5
100
AcDbSymbolTableRecord
100
AcDbLinetypeTableRecord
2
BORDER
70
0
3
Border __ __ . __ __ . __ __ . __ __ . __ __ .
72
65
73
6
40
44.45
49
12.7
74
0
49
-6.35
74
0
49
12.7
74
0
49
-6.35
74
0
49
0
74
0
49
-6.35
74
0
0
LTYPE
5
3F
330
5
100
AcDbSymbolTableRecord
100
AcDbLinetypeTableRecord
2
BORDER2
70
0
3
Border (.5x) __.__.__.__.__.__.__.__.__.__.__.
72
65
73
6
40
22.225
49
6.35
74
0
49
-3.175
74
0
49
6.35
74
0
49
-3.175
74
0
49
0
74
0
49
-3.175
74
0
0
LTYPE
5
40
330
5
100
AcDbSymbolTableRecord
100
AcDbLinetypeTableRecord
2
BORDERX2
70
0
3
Border (2x) ____  ____  .  ____  ____  .  ___
72
65
73
6
40
88.9
49
25.4
74
0
49
-12.7
74
0
49
25.4
74
0
49
-12.7
74
0
49
0
74
0
49
-12.7
74
0
0
LTYPE
5
41
330
5
100
AcDbSymbolTableRecord
100
AcDbLinetypeTableRecord
2
CENTER
70
0
3
Center ____ _ ____ _ ____ _ ____ _ ____ _ ____
72
65
73
4
40
50.8
49
31.75
74
0
49
-6.35
74
0
49
6.35
74
0
49
-6.35
74
0
0
LTYPE
5
42
330
5
100
AcDbSymbolTableRecord
100
AcDbLinetypeTableRecord
2
CENTER2
70
0
3
Center (.5x) ___ _ ___ _ ___ _ ___ _ ___ _ ___
72
65
73
4
40
28.575
49
19.05
74
0
49
-3.175
74
0
49
3.175
74
0
49
-3.175
74
0
0
LTYPE
5
43
330
5
100
AcDbSymbolTableRecord
100
AcDbLinetypeTableRecord
2
CENTERX2
70
0
3
Center (2x) ________  __  ________  __  _____
72
65
73
4
40
101.6
49
63.5
74
0
49
-12.7
74
0
49
12.7
74
0
49
-12.7
74
0
0
ENDTAB
0
TABLE
2
LAYER
5
2
330
0
100
AcDbSymbolTable
70
1
0
LAYER
5
10
330
2
100
AcDbSymbolTableRecord
100
AcDbLayerTableRecord
2
0
70
0
62
7
6
CONTINUOUS
370
0
390
F
0
ENDTAB
0
TABLE
2
STYLE
5
3
330
0
100
AcDbSymbolTable
70
3
0
STYLE
5
44
330
2
100
AcDbSymbolTableRecord
100
AcDbTextStyleTableRecord
2
Standard
70
0
40
0
41
1
50
0
71
0
42
1
3
txt
4

0
ENDTAB
0
TABLE
2
VIEW
5
6
330
0
100
AcDbSymbolTable
70
0
0
ENDTAB
0
TABLE
2
UCS
5
7
330
0
100
AcDbSymbolTable
70
0
0
ENDTAB
0
TABLE
2
APPID
5
9
330
0
100
AcDbSymbolTable
70
1
0
APPID
5
12
330
9
100
AcDbSymbolTableRecord
100
AcDbRegAppTableRecord
2
ACAD
70
0
0
ENDTAB
0
TABLE
2
DIMSTYLE
5
A
330
0
100
AcDbSymbolTable
70
1
100
AcDbDimStyleTable
71
1
0
DIMSTYLE
105
45
330
A
100
AcDbSymbolTableRecord
100
AcDbDimStyleTableRecord
2
Standard
70
0
40
1
41
2.5
42
0.625
43
0.38
44
1.25
45
0
46
0
47
0
48
0
140
2.5
141
0.09
142
0
143
25.4
144
1
145
0
146
1
147
0.625
148
0
71
0
72
0
73
0
74
1
75
0
76
0
77
0
78
0
79
0
170
0
171
2
172
0
173
0
174
0
175
0
176
0
177
0
178
0
179
0
271
4
272
4
273
2
274
2
275
0
276
0
277
2
278
46
279
0
280
0
281
0
282
0
283
1
284
0
285
0
286
0
288
0
289
3
340
Standard
341

371
-2
372
-2
0
ENDTAB
0
TABLE
2
BLOCK_RECORD
5
1
330
0
100
AcDbSymbolTable
70
2
0
BLOCK_RECORD
5
1F
330
1
100
AcDbSymbolTableRecord
100
AcDbBlockTableRecord
2
*Model_Space
70
0
280
1
281
0
0
BLOCK_RECORD
5
1E
330
1
100
AcDbSymbolTableRecord
100
AcDbBlockTableRecord
2
*Paper_Space
70
0
280
1
281
0
0
ENDTAB
0
ENDSEC
0
SECTION
2
BLOCKS
0
BLOCK
5
20
330
1F
100
AcDbEntity
8
0
100
AcDbBlockBegin
2
*Model_Space
70
0
10
0
20
0
30
0
3
*Model_Space
1

0
ENDBLK
5
21
330
1F
100
AcDbEntity
8
0
100
AcDbBlockEnd
0
BLOCK
5
1C
330
1B
100
AcDbEntity
8
0
100
AcDbBlockBegin
2
*Paper_Space
70
0
10
0
20
0
30
0
3
*Paper_Space
1

0
ENDBLK
5
1D
330
1F
100
AcDbEntity
8
0
100
AcDbBlockEnd
0
ENDSEC
0
SECTION
2
ENTITIES
0
LINE
5
46
100
AcDbEntity
8
0
6
ByLayer
62
256
370
-1
100
AcDbLine
10
-204.25
20
50.662
11
-204.25
21
80.662
0
LINE
5
47
100
AcDbEntity
8
0
6
ByLayer
62
256
370
-1
100
AcDbLine
10
-204.25
20
80.662
11
-44.25
21
357.791
0
LINE
5
48
100
AcDbEntity
8
0
6
ByLayer
62
256
370
-1
100
AcDbLine
10
-44.25
20
357.791
11
44.25
21
357.791
0
LINE
5
49
100
AcDbEntity
8
0
6
ByLayer
62
256
370
-1
100
AcDbLine
10
44.25
20
357.791
11
204.25
21
80.662
0
LINE
5
4A
100
AcDbEntity
8
0
6
ByLayer
62
256
370
-1
100
AcDbLine
10
204.25
20
80.662
11
204.25
21
50.662
0
LINE
5
4B
100
AcDbEntity
8
0
6
ByLayer
62
256
370
-1
100
AcDbLine
10
204.25
20
50.662
11
175
21
0
0
LINE
5
4C
100
AcDbEntity
8
0
6
ByLayer
62
256
370
-1
100
AcDbLine
10
175
20
0
11
175
21
-10
0
LINE
5
4D
100
AcDbEntity
8
0
6
ByLayer
62
256
370
-1
100
AcDbLine
10
175
20
-10
11
145
21
-10
0
LINE
5
4E
100
AcDbEntity
8
0
6
ByLayer
62
256
370
-1
100
AcDbLine
10
145
20
-10
11
145
21
0
0
LINE
5
4F
100
AcDbEntity
8
0
6
ByLayer
62
256
370
-1
100
AcDbLine
10
145
20
0
11
-145
21
0
0
LINE
5
50
100
AcDbEntity
8
0
6
ByLayer
62
256
370
-1
100
AcDbLine
10
-145
20
0
11
-145
21
-10
0
LINE
5
51
100
AcDbEntity
8
0
6
ByLayer
62
256
370
-1
100
AcDbLine
10
-145
20
-10
11
-175
21
-10
0
LINE
5
52
100
AcDbEntity
8
0
6
ByLayer
62
256
370
-1
100
AcDbLine
10
-175
20
-10
11
-175
21
0
0
LINE
5
53
100
AcDbEntity
8
0
6
ByLayer
62
256
370
-1
100
AcDbLine
10
-175
20
0
11
-204.25
21
50.662
0
LINE
5
54
100
AcDbEntity
8
0
6
ByLayer
62
256
370
-1
100
AcDbLine
10
-193.419
20
65.662
11
-193.168
21
67.088
0
LINE
5
55
100
AcDbEntity
8
0
6
ByLayer
62
256
370
-1
100
AcDbLine
10
-193.168
20
67.088
11
-192.444
21
68.342
0
LINE
5
56
100
AcDbEntity
8
0
6
ByLayer
62
256
370
-1
100
AcDbLine
10
-192.444
20
68.342
11
-191.335
21
69.273
0
LINE
5
57
100
AcDbEntity
8
0
6
ByLayer
62
256
370
-1
100
AcDbLine
10
-191.335
20
69.273
11
-189.974
21
69.768
0
LINE
5
58
100
AcDbEntity
8
0
6
ByLayer
62
256
370
-1
100
AcDbLine
10
-189.974
20
69.768
11
-188.526
21
69.768
0
LINE
5
59
100
AcDbEntity
8
0
6
ByLayer
62
256
370
-1
100
AcDbLine
10
-188.526
20
69.768
11
-187.165
21
69.273
0
LINE
5
5A
100
AcDbEntity
8
0
6
ByLayer
62
256
370
-1
100
AcDbLine
10
-187.165
20
69.273
11
-186.056
21
68.342
0
LINE
5
5B
100
AcDbEntity
8
0
6
ByLayer
62
256
370
-1
100
AcDbLine
10
-186.056
20
68.342
11
-185.332
21
67.088
0
LINE
5
5C
100
AcDbEntity
8
0
6
ByLayer
62
256
370
-1
100
AcDbLine
10
-185.332
20
67.088
11
-185.081
21
65.662
0
LINE
5
5D
100
AcDbEntity
8
0
6
ByLayer
62
256
370
-1
100
AcDbLine
10
-185.081
20
65.662
11
-185.332
21
64.237
0
LINE
5
5E
100
AcDbEntity
8
0
6
ByLayer
62
256
370
-1
100
AcDbLine
10
-185.332
20
64.237
11
-186.056
21
62.983
0
LINE
5
5F
100
AcDbEntity
8
0
6
ByLayer
62
256
370
-1
100
AcDbLine
10
-186.056
20
62.983
11
-187.165
21
62.052
0
LINE
5
60
100
AcDbEntity
8
0
6
ByLayer
62
256
370
-1
100
AcDbLine
10
-187.165
20
62.052
11
-188.526
21
61.557
0
LINE
5
61
100
AcDbEntity
8
0
6
ByLayer
62
256
370
-1
100
AcDbLine
10
-188.526
20
61.557
11
-189.974
21
61.557
0
LINE
5
62
100
AcDbEntity
8
0
6
ByLayer
62
256
370
-1
100
AcDbLine
10
-189.974
20
61.557
11
-191.335
21
62.052
0
LINE
5
63
100
AcDbEntity
8
0
6
ByLayer
62
256
370
-1
100
AcDbLine
10
-191.335
20
62.052
11
-192.444
21
62.983
0
LINE
5
64
100
AcDbEntity
8
0
6
ByLayer
62
256
370
-1
100
AcDbLine
10
-192.444
20
62.983
11
-193.168
21
64.237
0
LINE
5
65
100
AcDbEntity
8
0
6
ByLayer
62
256
370
-1
100
AcDbLine
10
-193.168
20
64.237
11
-193.419
21
65.662
0
LINE
5
66
100
AcDbEntity
8
0
6
ByLayer
62
256
370
-1
100
AcDbLine
10
-164.169
20
15
11
-163.918
21
16.426
0
LINE
5
67
100
AcDbEntity
8
0
6
ByLayer
62
256
370
-1
100
AcDbLine
10
-163.918
20
16.426
11
-163.194
21
17.68
0
LINE
5
68
100
AcDbEntity
8
0
6
ByLayer
62
256
370
-1
100
AcDbLine
10
-163.194
20
17.68
11
-162.085
21
18.611
0
LINE
5
69
100
AcDbEntity
8
0
6
ByLayer
62
256
370
-1
100
AcDbLine
10
-162.085
20
18.611
11
-160.724
21
19.106
0
LINE
5
6A
100
AcDbEntity
8
0
6
ByLayer
62
256
370
-1
100
AcDbLine
10
-160.724
20
19.106
11
-159.276
21
19.106
0
LINE
5
6B
100
AcDbEntity
8
0
6
ByLayer
62
256
370
-1
100
AcDbLine
10
-159.276
20
19.106
11
-157.915
21
18.611
0
LINE
5
6C
100
AcDbEntity
8
0
6
ByLayer
62
256
370
-1
100
AcDbLine
10
-157.915
20
18.611
11
-156.806
21
17.68
0
LINE
5
6D
100
AcDbEntity
8
0
6
ByLayer
62
256
370
-1
100
AcDbLine
10
-156.806
20
17.68
11
-156.082
21
16.426
0
LINE
5
6E
100
AcDbEntity
8
0
6
ByLayer
62
256
370
-1
100
AcDbLine
10
-156.082
20
16.426
11
-155.831
21
15
0
LINE
5
6F
100
AcDbEntity
8
0
6
ByLayer
62
256
370
-1
100
AcDbLine
10
-155.831
20
15
11
-156.082
21
13.574
0
LINE
5
70
100
AcDbEntity
8
0
6
ByLayer
62
256
370
-1
100
AcDbLine
10
-156.082
20
13.574
11
-156.806
21
12.32
0
LINE
5
71
100
AcDbEntity
8
0
6
ByLayer
62
256
370
-1
100
AcDbLine
10
-156.806
20
12.32
11
-157.915
21
11.389
0
LINE
5
72
100
AcDbEntity
8
0
6
ByLayer
62
256
370
-1
100
AcDbLine
10
-157.915
20
11.389
11
-159.276
21
10.894
0
LINE
5
73
100
AcDbEntity
8
0
6
ByLayer
62
256
370
-1
100
AcDbLine
10
-159.276
20
10.894
11
-160.724
21
10.894
0
LINE
5
74
100
AcDbEntity
8
0
6
ByLayer
62
256
370
-1
100
AcDbLine
10
-160.724
20
10.894
11
-162.085
21
11.389
0
LINE
5
75
100
AcDbEntity
8
0
6
ByLayer
62
256
370
-1
100
AcDbLine
10
-162.085
20
11.389
11
-163.194
21
12.32
0
LINE
5
76
100
AcDbEntity
8
0
6
ByLayer
62
256
370
-1
100
AcDbLine
10
-163.194
20
12.32
11
-163.918
21
13.574
0
LINE
5
77
100
AcDbEntity
8
0
6
ByLayer
62
256
370
-1
100
AcDbLine
10
-163.918
20
13.574
11
-164.169
21
15
0
LINE
5
78
100
AcDbEntity
8
0
6
ByLayer
62
256
370
-1
100
AcDbLine
10
-55
20
75.662
11
-55
21
272.791
0
LINE
5
79
100
AcDbEntity
8
0
6
ByLayer
62
256
370
-1
100
AcDbLine
10
-55
20
272.791
11
-54.971
21
274.323
0
LINE
5
7A
100
AcDbEntity
8
0
6
ByLayer
62
256
370
-1
100
AcDbLine
10
-54.971
20
274.323
11
-54.883
21
275.853
0
LINE
5
7B
100
AcDbEntity
8
0
6
ByLayer
62
256
370
-1
100
AcDbLine
10
-54.883
20
275.853
11
-54.736
21
277.378
0
LINE
5
7C
100
AcDbEntity
8
0
6
ByLayer
62
256
370
-1
100
AcDbLine
10
-54.736
20
277.378
11
-54.531
21
278.897
0
LINE
5
7D
100
AcDbEntity
8
0
6
ByLayer
62
256
370
-1
100
AcDbLine
10
-54.531
20
278.897
11
-54.268
21
280.407
0
LINE
5
7E
100
AcDbEntity
8
0
6
ByLayer
62
256
370
-1
100
AcDbLine
10
-54.268
20
280.407
11
-53.948
21
281.905
0
LINE
5
7F
100
AcDbEntity
8
0
6
ByLayer
62
256
370
-1
100
AcDbLine
10
-53.948
20
281.905
11
-53.57
21
283.39
0
LINE
5
80
100
AcDbEntity
8
0
6
ByLayer
62
256
370
-1
100
AcDbLine
10
-53.57
20
283.39
11
-53.136
21
284.86
0
LINE
5
81
100
AcDbEntity
8
0
6
ByLayer
62
256
370
-1
100
AcDbLine
10
-53.136
20
284.86
11
-52.646
21
286.312
0
LINE
5
82
100
AcDbEntity
8
0
6
ByLayer
62
256
370
-1
100
AcDbLine
10
-52.646
20
286.312
11
-52.1
21
287.744
0
LINE
5
83
100
AcDbEntity
8
0
6
ByLayer
62
256
370
-1
100
AcDbLine
10
-52.1
20
287.744
11
-51.5
21
289.154
0
LINE
5
84
100
AcDbEntity
8
0
6
ByLayer
62
256
370
-1
100
AcDbLine
10
-51.5
20
289.154
11
-50.847
21
290.54
0
LINE
5
85
100
AcDbEntity
8
0
6
ByLayer
62
256
370
-1
100
AcDbLine
10
-50.847
20
290.54
11
-50.14
21
291.9
0
LINE
5
86
100
AcDbEntity
8
0
6
ByLayer
62
256
370
-1
100
AcDbLine
10
-50.14
20
291.9
11
-49.383
21
293.232
0
LINE
5
87
100
AcDbEntity
8
0
6
ByLayer
62
256
370
-1
100
AcDbLine
10
-49.383
20
293.232
11
-48.575
21
294.534
0
LINE
5
88
100
AcDbEntity
8
0
6
ByLayer
62
256
370
-1
100
AcDbLine
10
-48.575
20
294.534
11
-47.717
21
295.804
0
LINE
5
89
100
AcDbEntity
8
0
6
ByLayer
62
256
370
-1
100
AcDbLine
10
-47.717
20
295.804
11
-46.812
21
297.04
0
LINE
5
8A
100
AcDbEntity
8
0
6
ByLayer
62
256
370
-1
100
AcDbLine
10
-46.812
20
297.04
11
-45.86
21
298.241
0
LINE
5
8B
100
AcDbEntity
8
0
6
ByLayer
62
256
370
-1
100
AcDbLine
10
-45.86
20
298.241
11
-44.862
21
299.404
0
LINE
5
8C
100
AcDbEntity
8
0
6
ByLayer
62
256
370
-1
100
AcDbLine
10
-44.862
20
299.404
11
-43.821
21
300.528
0
LINE
5
8D
100
AcDbEntity
8
0
6
ByLayer
62
256
370
-1
100
AcDbLine
10
-43.821
20
300.528
11
-42.737
21
301.612
0
LINE
5
8E
100
AcDbEntity
8
0
6
ByLayer
62
256
370
-1
100
AcDbLine
10
-42.737
20
301.612
11
-41.613
21
302.653
0
LINE
5
8F
100
AcDbEntity
8
0
6
ByLayer
62
256
370
-1
100
AcDbLine
10
-41.613
20
302.653
11
-40.45
21
303.651
0
LINE
5
90
100
AcDbEntity
8
0
6
ByLayer
62
256
370
-1
100
AcDbLine
10
-40.45
20
303.651
11
-39.249
21
304.603
0
LINE
5
91
100
AcDbEntity
8
0
6
ByLayer
62
256
370
-1
100
AcDbLine
10
-39.249
20
304.603
11
-38.013
21
305.508
0
LINE
5
92
100
AcDbEntity
8
0
6
ByLayer
62
256
370
-1
100
AcDbLine
10
-38.013
20
305.508
11
-36.743
21
306.366
0
LINE
5
93
100
AcDbEntity
8
0
6
ByLayer
62
256
370
-1
100
AcDbLine
10
-36.743
20
306.366
11
-35.441
21
307.174
0
LINE
5
94
100
AcDbEntity
8
0
6
ByLayer
62
256
370
-1
100
AcDbLine
10
-35.441
20
307.174
11
-34.109
21
307.931
0
LINE
5
95
100
AcDbEntity
8
0
6
ByLayer
62
256
370
-1
100
AcDbLine
10
-34.109
20
307.931
11
-32.749
21
308.638
0
LINE
5
96
100
AcDbEntity
8
0
6
ByLayer
62
256
370
-1
100
AcDbLine
10
-32.749
20
308.638
11
-31.363
21
309.291
0
LINE
5
97
100
AcDbEntity
8
0
6
ByLayer
62
256
370
-1
100
AcDbLine
10
-31.363
20
309.291
11
-29.953
21
309.891
0
LINE
5
98
100
AcDbEntity
8
0
6
ByLayer
62
256
370
-1
100
AcDbLine
10
-29.953
20
309.891
11
-28.521
21
310.437
0
LINE
5
99
100
AcDbEntity
8
0
6
ByLayer
62
256
370
-1
100
AcDbLine
10
-28.521
20
310.437
11
-27.069
21
310.927
0
LINE
5
9A
100
AcDbEntity
8
0
6
ByLayer
62
256
370
-1
100
AcDbLine
10
-27.069
20
310.927
11
-25.599
21
311.361
0
LINE
5
9B
100
AcDbEntity
8
0
6
ByLayer
62
256
370
-1
100
AcDbLine
10
-25.599
20
311.361
11
-24.114
21
311.739
0
LINE
5
9C
100
AcDbEntity
8
0
6
ByLayer
62
256
370
-1
100
AcDbLine
10
-24.114
20
311.739
11
-22.616
21
312.059
0
LINE
5
9D
100
AcDbEntity
8
0
6
ByLayer
62
256
370
-1
100
AcDbLine
10
-22.616
20
312.059
11
-21.106
21
312.322
0
LINE
5
9E
100
AcDbEntity
8
0
6
ByLayer
62
256
370
-1
100
AcDbLine
10
-21.106
20
312.322
11
-19.587
21
312.527
0
LINE
5
9F
100
AcDbEntity
8
0
6
ByLayer
62
256
370
-1
100
AcDbLine
10
-19.587
20
312.527
11
-18.062
21
312.674
0
LINE
5
A0
100
AcDbEntity
8
0
6
ByLayer
62
256
370
-1
100
AcDbLine
10
-18.062
20
312.674
11
-16.532
21
312.762
0
LINE
5
A1
100
AcDbEntity
8
0
6
ByLayer
62
256
370
-1
100
AcDbLine
10
-16.532
20
312.762
11
-15
21
312.791
0
LINE
5
A2
100
AcDbEntity
8
0
6
ByLayer
62
256
370
-1
100
AcDbLine
10
-15
20
312.791
11
15
21
312.791
0
LINE
5
A3
100
AcDbEntity
8
0
6
ByLayer
62
256
370
-1
100
AcDbLine
10
15
20
312.791
11
16.532
21
312.762
0
LINE
5
A4
100
AcDbEntity
8
0
6
ByLayer
62
256
370
-1
100
AcDbLine
10
16.532
20
312.762
11
18.062
21
312.674
0
LINE
5
A5
100
AcDbEntity
8
0
6
ByLayer
62
256
370
-1
100
AcDbLine
10
18.062
20
312.674
11
19.587
21
312.527
0
LINE
5
A6
100
AcDbEntity
8
0
6
ByLayer
62
256
370
-1
100
AcDbLine
10
19.587
20
312.527
11
21.106
21
312.322
0
LINE
5
A7
100
AcDbEntity
8
0
6
ByLayer
62
256
370
-1
100
AcDbLine
10
21.106
20
312.322
11
22.616
21
312.059
0
LINE
5
A8
100
AcDbEntity
8
0
6
ByLayer
62
256
370
-1
100
AcDbLine
10
22.616
20
312.059
11
24.114
21
311.739
0
LINE
5
A9
100
AcDbEntity
8
0
6
ByLayer
62
256
370
-1
100
AcDbLine
10
24.114
20
311.739
11
25.599
21
311.361
0
LINE
5
AA
100
AcDbEntity
8
0
6
ByLayer
62
256
370
-1
100
AcDbLine
10
25.599
20
311.361
11
27.069
21
310.927
0
LINE
5
AB
100
AcDbEntity
8
0
6
ByLayer
62
256
370
-1
100
AcDbLine
10
27.069
20
310.927
11
28.521
21
310.437
0
LINE
5
AC
100
AcDbEntity
8
0
6
ByLayer
62
256
370
-1
100
AcDbLine
10
28.521
20
310.437
11
29.953
21
309.891
0
LINE
5
AD
100
AcDbEntity
8
0
6
ByLayer
62
256
370
-1
100
AcDbLine
10
29.953
20
309.891
11
31.363
21
309.291
0
LINE
5
AE
100
AcDbEntity
8
0
6
ByLayer
62
256
370
-1
100
AcDbLine
10
31.363
20
309.291
11
32.749
21
308.638
0
LINE
5
AF
100
AcDbEntity
8
0
6
ByLayer
62
256
370
-1
100
AcDbLine
10
32.749
20
308.638
11
34.109
21
307.931
0
LINE
5
B0
100
AcDbEntity
8
0
6
ByLayer
62
256
370
-1
100
AcDbLine
10
34.109
20
307.931
11
35.441
21
307.174
0
LINE
5
B1
100
AcDbEntity
8
0
6
ByLayer
62
256
370
-1
100
AcDbLine
10
35.441
20
307.174
11
36.743
21
306.366
0
LINE
5
B2
100
AcDbEntity
8
0
6
ByLayer
62
256
370
-1
100
AcDbLine
10
36.743
20
306.366
11
38.013
21
305.508
0
LINE
5
B3
100
AcDbEntity
8
0
6
ByLayer
62
256
370
-1
100
AcDbLine
10
38.013
20
305.508
11
39.249
21
304.603
0
LINE
5
B4
100
AcDbEntity
8
0
6
ByLayer
62
256
370
-1
100
AcDbLine
10
39.249
20
304.603
11
40.45
21
303.651
0
LINE
5
B5
100
AcDbEntity
8
0
6
ByLayer
62
256
370
-1
100
AcDbLine
10
40.45
20
303.651
11
41.613
21
302.653
0
LINE
5
B6
100
AcDbEntity
8
0
6
ByLayer
62
256
370
-1
100
AcDbLine
10
41.613
20
302.653
11
42.737
21
301.612
0
LINE
5
B7
100
AcDbEntity
8
0
6
ByLayer
62
256
370
-1
100
AcDbLine
10
42.737
20
301.612
11
43.821
21
300.528
0
LINE
5
B8
100
AcDbEntity
8
0
6
ByLayer
62
256
370
-1
100
AcDbLine
10
43.821
20
300.528
11
44.862
21
299.404
0
LINE
5
B9
100
AcDbEntity
8
0
6
ByLayer
62
256
370
-1
100
AcDbLine
10
44.862
20
299.404
11
45.86
21
298.241
0
LINE
5
BA
100
AcDbEntity
8
0
6
ByLayer
62
256
370
-1
100
AcDbLine
10
45.86
20
298.241
11
46.812
21
297.04
0
LINE
5
BB
100
AcDbEntity
8
0
6
ByLayer
62
256
370
-1
100
AcDbLine
10
46.812
20
297.04
11
47.717
21
295.804
0
LINE
5
BC
100
AcDbEntity
8
0
6
ByLayer
62
256
370
-1
100
AcDbLine
10
47.717
20
295.804
11
48.575
21
294.534
0
LINE
5
BD
100
AcDbEntity
8
0
6
ByLayer
62
256
370
-1
100
AcDbLine
10
48.575
20
294.534
11
49.383
21
293.232
0
LINE
5
BE
100
AcDbEntity
8
0
6
ByLayer
62
256
370
-1
100
AcDbLine
10
49.383
20
293.232
11
50.14
21
291.9
0
LINE
5
BF
100
AcDbEntity
8
0
6
ByLayer
62
256
370
-1
100
AcDbLine
10
50.14
20
291.9
11
50.847
21
290.54
0
LINE
5
C0
100
AcDbEntity
8
0
6
ByLayer
62
256
370
-1
100
AcDbLine
10
50.847
20
290.54
11
51.5
21
289.154
0
LINE
5
C1
100
AcDbEntity
8
0
6
ByLayer
62
256
370
-1
100
AcDbLine
10
51.5
20
289.154
11
52.1
21
287.744
0
LINE
5
C2
100
AcDbEntity
8
0
6
ByLayer
62
256
370
-1
100
AcDbLine
10
52.1
20
287.744
11
52.646
21
286.312
0
LINE
5
C3
100
AcDbEntity
8
0
6
ByLayer
62
256
370
-1
100
AcDbLine
10
52.646
20
286.312
11
53.136
21
284.86
0
LINE
5
C4
100
AcDbEntity
8
0
6
ByLayer
62
256
370
-1
100
AcDbLine
10
53.136
20
284.86
11
53.57
21
283.39
0
LINE
5
C5
100
AcDbEntity
8
0
6
ByLayer
62
256
370
-1
100
AcDbLine
10
53.57
20
283.39
11
53.948
21
281.905
0
LINE
5
C6
100
AcDbEntity
8
0
6
ByLayer
62
256
370
-1
100
AcDbLine
10
53.948
20
281.905
11
54.268
21
280.407
0
LINE
5
C7
100
AcDbEntity
8
0
6
ByLayer
62
256
370
-1
100
AcDbLine
10
54.268
20
280.407
11
54.531
21
278.897
0
LINE
5
C8
100
AcDbEntity
8
0
6
ByLayer
62
256
370
-1
100
AcDbLine
10
54.531
20
278.897
11
54.736
21
277.378
0
LINE
5
C9
100
AcDbEntity
8
0
6
ByLayer
62
256
370
-1
100
AcDbLine
10
54.736
20
277.378
11
54.883
21
275.853
0
LINE
5
CA
100
AcDbEntity
8
0
6
ByLayer
62
256
370
-1
100
AcDbLine
10
54.883
20
275.853
11
54.971
21
274.323
0
LINE
5
CB
100
AcDbEntity
8
0
6
ByLayer
62
256
370
-1
100
AcDbLine
10
54.971
20
274.323
11
55
21
272.791
0
LINE
5
CC
100
AcDbEntity
8
0
6
ByLayer
62
256
370
-1
100
AcDbLine
10
55
20
272.791
11
55
21
75.662
0
LINE
5
CD
100
AcDbEntity
8
0
6
ByLayer
62
256
370
-1
100
AcDbLine
10
55
20
75.662
11
54.898
21
74.239
0
LINE
5
CE
100
AcDbEntity
8
0
6
ByLayer
62
256
370
-1
100
AcDbLine
10
54.898
20
74.239
11
54.595
21
72.845
0
LINE
5
CF
100
AcDbEntity
8
0
6
ByLayer
62
256
370
-1
100
AcDbLine
10
54.595
20
72.845
11
54.096
21
71.508
0
LINE
5
D0
100
AcDbEntity
8
0
6
ByLayer
62
256
370
-1
100
AcDbLine
10
54.096
20
71.508
11
53.413
21
70.256
0
LINE
5
D1
100
AcDbEntity
8
0
6
ByLayer
62
256
370
-1
100
AcDbLine
10
53.413
20
70.256
11
52.557
21
69.113
0
LINE
5
D2
100
AcDbEntity
8
0
6
ByLayer
62
256
370
-1
100
AcDbLine
10
52.557
20
69.113
11
51.549
21
68.105
0
LINE
5
D3
100
AcDbEntity
8
0
6
ByLayer
62
256
370
-1
100
AcDbLine
10
51.549
20
68.105
11
50.406
21
67.249
0
LINE
5
D4
100
AcDbEntity
8
0
6
ByLayer
62
256
370
-1
100
AcDbLine
10
50.406
20
67.249
11
49.154
21
66.566
0
LINE
5
D5
100
AcDbEntity
8
0
6
ByLayer
62
256
370
-1
100
AcDbLine
10
49.154
20
66.566
11
47.817
21
66.067
0
LINE
5
D6
100
AcDbEntity
8
0
6
ByLayer
62
256
370
-1
100
AcDbLine
10
47.817
20
66.067
11
46.423
21
65.764
0
LINE
5
D7
100
AcDbEntity
8
0
6
ByLayer
62
256
370
-1
100
AcDbLine
10
46.423
20
65.764
11
45
21
65.662
0
LINE
5
D8
100
AcDbEntity
8
0
6
ByLayer
62
256
370
-1
100
AcDbLine
10
45
20
65.662
11
-45
21
65.662
0
LINE
5
D9
100
AcDbEntity
8
0
6
ByLayer
62
256
370
-1
100
AcDbLine
10
-45
20
65.662
11
-46.423
21
65.764
0
LINE
5
DA
100
AcDbEntity
8
0
6
ByLayer
62
256
370
-1
100
AcDbLine
10
-46.423
20
65.764
11
-47.817
21
66.067
0
LINE
5
DB
100
AcDbEntity
8
0
6
ByLayer
62
256
370
-1
100
AcDbLine
10
-47.817
20
66.067
11
-49.154
21
66.566
0
LINE
5
DC
100
AcDbEntity
8
0
6
ByLayer
62
256
370
-1
100
AcDbLine
10
-49.154
20
66.566
11
-50.406
21
67.249
0
LINE
5
DD
100
AcDbEntity
8
0
6
ByLayer
62
256
370
-1
100
AcDbLine
10
-50.406
20
67.249
11
-51.549
21
68.105
0
LINE
5
DE
100
AcDbEntity
8
0
6
ByLayer
62
256
370
-1
100
AcDbLine
10
-51.549
20
68.105
11
-52.557
21
69.113
0
LINE
5
DF
100
AcDbEntity
8
0
6
ByLayer
62
256
370
-1
100
AcDbLine
10
-52.557
20
69.113
11
-53.413
21
70.256
0
LINE
5
E0
100
AcDbEntity
8
0
6
ByLayer
62
256
370
-1
100
AcDbLine
10
-53.413
20
70.256
11
-54.096
21
71.508
0
LINE
5
E1
100
AcDbEntity
8
0
6
ByLayer
62
256
370
-1
100
AcDbLine
10
-54.096
20
71.508
11
-54.595
21
72.845
0
LINE
5
E2
100
AcDbEntity
8
0
6
ByLayer
62
256
370
-1
100
AcDbLine
10
-54.595
20
72.845
11
-54.898
21
74.239
0
LINE
5
E3
100
AcDbEntity
8
0
6
ByLayer
62
256
370
-1
100
AcDbLine
10
-54.898
20
74.239
11
-55
21
75.662
0
LINE
5
E4
100
AcDbEntity
8
0
6
ByLayer
62
256
370
-1
100
AcDbLine
10
-33.356
20
342.067
11
-33.356
21
343.515
0
LINE
5
E5
100
AcDbEntity
8
0
6
ByLayer
62
256
370
-1
100
AcDbLine
10
-33.356
20
343.515
11
-32.861
21
344.875
0
LINE
5
E6
100
AcDbEntity
8
0
6
ByLayer
62
256
370
-1
100
AcDbLine
10
-32.861
20
344.875
11
-31.93
21
345.984
0
LINE
5
E7
100
AcDbEntity
8
0
6
ByLayer
62
256
370
-1
100
AcDbLine
10
-31.93
20
345.984
11
-30.676
21
346.708
0
LINE
5
E8
100
AcDbEntity
8
0
6
ByLayer
62
256
370
-1
100
AcDbLine
10
-30.676
20
346.708
11
-29.25
21
346.96
0
LINE
5
E9
100
AcDbEntity
8
0
6
ByLayer
62
256
370
-1
100
AcDbLine
10
-29.25
20
346.96
11
-27.824
21
346.708
0
LINE
5
EA
100
AcDbEntity
8
0
6
ByLayer
62
256
370
-1
100
AcDbLine
10
-27.824
20
346.708
11
-26.57
21
345.984
0
LINE
5
EB
100
AcDbEntity
8
0
6
ByLayer
62
256
370
-1
100
AcDbLine
10
-26.57
20
345.984
11
-25.639
21
344.875
0
LINE
5
EC
100
AcDbEntity
8
0
6
ByLayer
62
256
370
-1
100
AcDbLine
10
-25.639
20
344.875
11
-25.144
21
343.515
0
LINE
5
ED
100
AcDbEntity
8
0
6
ByLayer
62
256
370
-1
100
AcDbLine
10
-25.144
20
343.515
11
-25.144
21
342.067
0
LINE
5
EE
100
AcDbEntity
8
0
6
ByLayer
62
256
370
-1
100
AcDbLine
10
-25.144
20
342.067
11
-25.639
21
340.706
0
LINE
5
EF
100
AcDbEntity
8
0
6
ByLayer
62
256
370
-1
100
AcDbLine
10
-25.639
20
340.706
11
-26.57
21
339.597
0
LINE
5
F0
100
AcDbEntity
8
0
6
ByLayer
62
256
370
-1
100
AcDbLine
10
-26.57
20
339.597
11
-27.824
21
338.873
0
LINE
5
F1
100
AcDbEntity
8
0
6
ByLayer
62
256
370
-1
100
AcDbLine
10
-27.824
20
338.873
11
-29.25
21
338.621
0
LINE
5
F2
100
AcDbEntity
8
0
6
ByLayer
62
256
370
-1
100
AcDbLine
10
-29.25
20
338.621
11
-30.676
21
338.873
0
LINE
5
F3
100
AcDbEntity
8
0
6
ByLayer
62
256
370
-1
100
AcDbLine
10
-30.676
20
338.873
11
-31.93
21
339.597
0
LINE
5
F4
100
AcDbEntity
8
0
6
ByLayer
62
256
370
-1
100
AcDbLine
10
-31.93
20
339.597
11
-32.861
21
340.706
0
LINE
5
F5
100
AcDbEntity
8
0
6
ByLayer
62
256
370
-1
100
AcDbLine
10
-32.861
20
340.706
11
-33.356
21
342.067
0
LINE
5
F6
100
AcDbEntity
8
0
6
ByLayer
62
256
370
-1
100
AcDbLine
10
-15.106
20
14.276
11
-15.106
21
15.724
0
LINE
5
F7
100
AcDbEntity
8
0
6
ByLayer
62
256
370
-1
100
AcDbLine
10
-15.106
20
15.724
11
-14.611
21
17.085
0
LINE
5
F8
100
AcDbEntity
8
0
6
ByLayer
62
256
370
-1
100
AcDbLine
10
-14.611
20
17.085
11
-13.68
21
18.194
0
LINE
5
F9
100
AcDbEntity
8
0
6
ByLayer
62
256
370
-1
100
AcDbLine
10
-13.68
20
18.194
11
-12.426
21
18.918
0
LINE
5
FA
100
AcDbEntity
8
0
6
ByLayer
62
256
370
-1
100
AcDbLine
10
-12.426
20
18.918
11
-11
21
19.169
0
LINE
5
FB
100
AcDbEntity
8
0
6
ByLayer
62
256
370
-1
100
AcDbLine
10
-11
20
19.169
11
-10.641
21
19.106
0
LINE
5
FC
100
AcDbEntity
8
0
6
ByLayer
62
256
370
-1
100
AcDbLine
10
-10.641
20
19.106
11
-8.359
21
19.106
0
LINE
5
FD
100
AcDbEntity
8
0
6
ByLayer
62
256
370
-1
100
AcDbLine
10
-8.359
20
19.106
11
-8
21
19.169
0
LINE
5
FE
100
AcDbEntity
8
0
6
ByLayer
62
256
370
-1
100
AcDbLine
10
-8
20
19.169
11
-6.574
21
18.918
0
LINE
5
FF
100
AcDbEntity
8
0
6
ByLayer
62
256
370
-1
100
AcDbLine
10
-6.574
20
18.918
11
-5.32
21
18.194
0
LINE
5
100
100
AcDbEntity
8
0
6
ByLayer
62
256
370
-1
100
AcDbLine
10
-5.32
20
18.194
11
-4.389
21
17.085
0
LINE
5
101
100
AcDbEntity
8
0
6
ByLayer
62
256
370
-1
100
AcDbLine
10
-4.389
20
17.085
11
-3.894
21
15.724
0
LINE
5
102
100
AcDbEntity
8
0
6
ByLayer
62
256
370
-1
100
AcDbLine
10
-3.894
20
15.724
11
-3.894
21
14.276
0
LINE
5
103
100
AcDbEntity
8
0
6
ByLayer
62
256
370
-1
100
AcDbLine
10
-3.894
20
14.276
11
-4.389
21
12.915
0
LINE
5
104
100
AcDbEntity
8
0
6
ByLayer
62
256
370
-1
100
AcDbLine
10
-4.389
20
12.915
11
-5.32
21
11.806
0
LINE
5
105
100
AcDbEntity
8
0
6
ByLayer
62
256
370
-1
100
AcDbLine
10
-5.32
20
11.806
11
-6.574
21
11.082
0
LINE
5
106
100
AcDbEntity
8
0
6
ByLayer
62
256
370
-1
100
AcDbLine
10
-6.574
20
11.082
11
-8
21
10.831
0
LINE
5
107
100
AcDbEntity
8
0
6
ByLayer
62
256
370
-1
100
AcDbLine
10
-8
20
10.831
11
-8.359
21
10.894
0
LINE
5
108
100
AcDbEntity
8
0
6
ByLayer
62
256
370
-1
100
AcDbLine
10
-8.359
20
10.894
11
-10.641
21
10.894
0
LINE
5
109
100
AcDbEntity
8
0
6
ByLayer
62
256
370
-1
100
AcDbLine
10
-10.641
20
10.894
11
-11
21
10.831
0
LINE
5
10A
100
AcDbEntity
8
0
6
ByLayer
62
256
370
-1
100
AcDbLine
10
-11
20
10.831
11
-12.426
21
11.082
0
LINE
5
10B
100
AcDbEntity
8
0
6
ByLayer
62
256
370
-1
100
AcDbLine
10
-12.426
20
11.082
11
-13.68
21
11.806
0
LINE
5
10C
100
AcDbEntity
8
0
6
ByLayer
62
256
370
-1
100
AcDbLine
10
-13.68
20
11.806
11
-14.611
21
12.915
0
LINE
5
10D
100
AcDbEntity
8
0
6
ByLayer
62
256
370
-1
100
AcDbLine
10
-14.611
20
12.915
11
-15.106
21
14.276
0
LINE
5
10E
100
AcDbEntity
8
0
6
ByLayer
62
256
370
-1
100
AcDbLine
10
25.144
20
342.067
11
25.144
21
343.515
0
LINE
5
10F
100
AcDbEntity
8
0
6
ByLayer
62
256
370
-1
100
AcDbLine
10
25.144
20
343.515
11
25.639
21
344.875
0
LINE
5
110
100
AcDbEntity
8
0
6
ByLayer
62
256
370
-1
100
AcDbLine
10
25.639
20
344.875
11
26.57
21
345.984
0
LINE
5
111
100
AcDbEntity
8
0
6
ByLayer
62
256
370
-1
100
AcDbLine
10
26.57
20
345.984
11
27.824
21
346.708
0
LINE
5
112
100
AcDbEntity
8
0
6
ByLayer
62
256
370
-1
100
AcDbLine
10
27.824
20
346.708
11
29.25
21
346.96
0
LINE
5
113
100
AcDbEntity
8
0
6
ByLayer
62
256
370
-1
100
AcDbLine
10
29.25
20
346.96
11
30.676
21
346.708
0
LINE
5
114
100
AcDbEntity
8
0
6
ByLayer
62
256
370
-1
100
AcDbLine
10
30.676
20
346.708
11
31.93
21
345.984
0
LINE
5
115
100
AcDbEntity
8
0
6
ByLayer
62
256
370
-1
100
AcDbLine
10
31.93
20
345.984
11
32.861
21
344.875
0
LINE
5
116
100
AcDbEntity
8
0
6
ByLayer
62
256
370
-1
100
AcDbLine
10
32.861
20
344.875
11
33.356
21
343.515
0
LINE
5
117
100
AcDbEntity
8
0
6
ByLayer
62
256
370
-1
100
AcDbLine
10
33.356
20
343.515
11
33.356
21
342.067
0
LINE
5
118
100
AcDbEntity
8
0
6
ByLayer
62
256
370
-1
100
AcDbLine
10
33.356
20
342.067
11
32.861
21
340.706
0
LINE
5
119
100
AcDbEntity
8
0
6
ByLayer
62
256
370
-1
100
AcDbLine
10
32.861
20
340.706
11
31.93
21
339.597
0
LINE
5
11A
100
AcDbEntity
8
0
6
ByLayer
62
256
370
-1
100
AcDbLine
10
31.93
20
339.597
11
30.676
21
338.873
0
LINE
5
11B
100
AcDbEntity
8
0
6
ByLayer
62
256
370
-1
100
AcDbLine
10
30.676
20
338.873
11
29.25
21
338.621
0
LINE
5
11C
100
AcDbEntity
8
0
6
ByLayer
62
256
370
-1
100
AcDbLine
10
29.25
20
338.621
11
27.824
21
338.873
0
LINE
5
11D
100
AcDbEntity
8
0
6
ByLayer
62
256
370
-1
100
AcDbLine
10
27.824
20
338.873
11
26.57
21
339.597
0
LINE
5
11E
100
AcDbEntity
8
0
6
ByLayer
62
256
370
-1
100
AcDbLine
10
26.57
20
339.597
11
25.639
21
340.706
0
LINE
5
11F
100
AcDbEntity
8
0
6
ByLayer
62
256
370
-1
100
AcDbLine
10
25.639
20
340.706
11
25.144
21
342.067
0
LINE
5
120
100
AcDbEntity
8
0
6
ByLayer
62
256
370
-1
100
AcDbLine
10
155.831
20
15
11
156.082
21
16.426
0
LINE
5
121
100
AcDbEntity
8
0
6
ByLayer
62
256
370
-1
100
AcDbLine
10
156.082
20
16.426
11
156.806
21
17.68
0
LINE
5
122
100
AcDbEntity
8
0
6
ByLayer
62
256
370
-1
100
AcDbLine
10
156.806
20
17.68
11
157.915
21
18.611
0
LINE
5
123
100
AcDbEntity
8
0
6
ByLayer
62
256
370
-1
100
AcDbLine
10
157.915
20
18.611
11
159.276
21
19.106
0
LINE
5
124
100
AcDbEntity
8
0
6
ByLayer
62
256
370
-1
100
AcDbLine
10
159.276
20
19.106
11
160.724
21
19.106
0
LINE
5
125
100
AcDbEntity
8
0
6
ByLayer
62
256
370
-1
100
AcDbLine
10
160.724
20
19.106
11
162.085
21
18.611
0
LINE
5
126
100
AcDbEntity
8
0
6
ByLayer
62
256
370
-1
100
AcDbLine
10
162.085
20
18.611
11
163.194
21
17.68
0
LINE
5
127
100
AcDbEntity
8
0
6
ByLayer
62
256
370
-1
100
AcDbLine
10
163.194
20
17.68
11
163.918
21
16.426
0
LINE
5
128
100
AcDbEntity
8
0
6
ByLayer
62
256
370
-1
100
AcDbLine
10
163.918
20
16.426
11
164.169
21
15
0
LINE
5
129
100
AcDbEntity
8
0
6
ByLayer
62
256
370
-1
100
AcDbLine
10
164.169
20
15
11
163.918
21
13.574
0
LINE
5
12A
100
AcDbEntity
8
0
6
ByLayer
62
256
370
-1
100
AcDbLine
10
163.918
20
13.574
11
163.194
21
12.32
0
LINE
5
12B
100
AcDbEntity
8
0
6
ByLayer
62
256
370
-1
100
AcDbLine
10
163.194
20
12.32
11
162.085
21
11.389
0
LINE
5
12C
100
AcDbEntity
8
0
6
ByLayer
62
256
370
-1
100
AcDbLine
10
162.085
20
11.389
11
160.724
21
10.894
0
LINE
5
12D
100
AcDbEntity
8
0
6
ByLayer
62
256
370
-1
100
AcDbLine
10
160.724
20
10.894
11
159.276
21
10.894
0
LINE
5
12E
100
AcDbEntity
8
0
6
ByLayer
62
256
370
-1
100
AcDbLine
10
159.276
20
10.894
11
157.915
21
11.389
0
LINE
5
12F
100
AcDbEntity
8
0
6
ByLayer
62
256
370
-1
100
AcDbLine
10
157.915
20
11.389
11
156.806
21
12.32
0
LINE
5
130
100
AcDbEntity
8
0
6
ByLayer
62
256
370
-1
100
AcDbLine
10
156.806
20
12.32
11
156.082
21
13.574
0
LINE
5
131
100
AcDbEntity
8
0
6
ByLayer
62
256
370
-1
100
AcDbLine
10
156.082
20
13.574
11
155.831
21
15
0
LINE
5
132
100
AcDbEntity
8
0
6
ByLayer
62
256
370
-1
100
AcDbLine
10
185.081
20
65.662
11
185.332
21
67.088
0
LINE
5
133
100
AcDbEntity
8
0
6
ByLayer
62
256
370
-1
100
AcDbLine
10
185.332
20
67.088
11
186.056
21
68.342
0
LINE
5
134
100
AcDbEntity
8
0
6
ByLayer
62
256
370
-1
100
AcDbLine
10
186.056
20
68.342
11
187.165
21
69.273
0
LINE
5
135
100
AcDbEntity
8
0
6
ByLayer
62
256
370
-1
100
AcDbLine
10
187.165
20
69.273
11
188.526
21
69.768
0
LINE
5
136
100
AcDbEntity
8
0
6
ByLayer
62
256
370
-1
100
AcDbLine
10
188.526
20
69.768
11
189.974
21
69.768
0
LINE
5
137
100
AcDbEntity
8
0
6
ByLayer
62
256
370
-1
100
AcDbLine
10
189.974
20
69.768
11
191.335
21
69.273
0
LINE
5
138
100
AcDbEntity
8
0
6
ByLayer
62
256
370
-1
100
AcDbLine
10
191.335
20
69.273
11
192.444
21
68.342
0
LINE
5
139
100
AcDbEntity
8
0
6
ByLayer
62
256
370
-1
100
AcDbLine
10
192.444
20
68.342
11
193.168
21
67.088
0
LINE
5
13A
100
AcDbEntity
8
0
6
ByLayer
62
256
370
-1
100
AcDbLine
10
193.168
20
67.088
11
193.419
21
65.662
0
LINE
5
13B
100
AcDbEntity
8
0
6
ByLayer
62
256
370
-1
100
AcDbLine
10
193.419
20
65.662
11
193.168
21
64.237
0
LINE
5
13C
100
AcDbEntity
8
0
6
ByLayer
62
256
370
-1
100
AcDbLine
10
193.168
20
64.237
11
192.444
21
62.983
0
LINE
5
13D
100
AcDbEntity
8
0
6
ByLayer
62
256
370
-1
100
AcDbLine
10
192.444
20
62.983
11
191.335
21
62.052
0
LINE
5
13E
100
AcDbEntity
8
0
6
ByLayer
62
256
370
-1
100
AcDbLine
10
191.335
20
62.052
11
189.974
21
61.557
0
LINE
5
13F
100
AcDbEntity
8
0
6
ByLayer
62
256
370
-1
100
AcDbLine
10
189.974
20
61.557
11
188.526
21
61.557
0
LINE
5
140
100
AcDbEntity
8
0
6
ByLayer
62
256
370
-1
100
AcDbLine
10
188.526
20
61.557
11
187.165
21
62.052
0
LINE
5
141
100
AcDbEntity
8
0
6
ByLayer
62
256
370
-1
100
AcDbLine
10
187.165
20
62.052
11
186.056
21
62.983
0
LINE
5
142
100
AcDbEntity
8
0
6
ByLayer
62
256
370
-1
100
AcDbLine
10
186.056
20
62.983
11
185.332
21
64.237
0
LINE
5
143
100
AcDbEntity
8
0
6
ByLayer
62
256
370
-1
100
AcDbLine
10
185.332
20
64.237
11
185.081
21
65.662
0
ENDSEC
0
SECTION
2
OBJECTS
0
DICTIONARY
5
C
330
0
100
AcDbDictionary
281
1
3
ACAD_GROUP
350
D
0
DICTIONARY
5
D
330
C
100
AcDbDictionary
281
1
0
ENDSEC
0
EOF
