  0
SECTION
  2
BLOCKS
  0
ENDSEC
  0
SECTION
  2
ENTITIES
  0
LINE
  8
0
 10
-204.25
 11
-204.25
 20
0
 21
357.791
  0
LINE
  8
0
 10
-204.25
 11
204.25
 20
357.791
 21
357.791
  0
LINE
  8
0
 10
204.25
 11
204.25
 20
357.791
 21
0
  0
LINE
  8
0
 10
204.25
 11
175
 20
0
 21
0
  0
LINE
  8
0
 10
175
 11
175
 20
0
 21
-10
  0
LINE
  8
0
 10
175
 11
145
 20
-10
 21
-10
  0
LINE
  8
0
 10
145
 11
145
 20
-10
 21
0
  0
LINE
  8
0
 10
145
 11
-145
 20
0
 21
0
  0
LINE
  8
0
 10
-145
 11
-145
 20
0
 21
-10
  0
LINE
  8
0
 10
-145
 11
-175
 20
-10
 21
-10
  0
LINE
  8
0
 10
-175
 11
-175
 20
-10
 21
0
  0
LINE
  8
0
 10
-175
 11
-204.25
 20
0
 21
0
  0
LINE
  8
0
 10
-193.419
 11
-193.168
 20
65.662
 21
67.088
  0
LINE
  8
0
 10
-193.168
 11
-192.444
 20
67.088
 21
68.342
  0
LINE
  8
0
 10
-192.444
 11
-191.335
 20
68.342
 21
69.273
  0
LINE
  8
0
 10
-191.335
 11
-189.974
 20
69.273
 21
69.768
  0
LINE
  8
0
 10
-189.974
 11
-188.526
 20
69.768
 21
69.768
  0
LINE
  8
0
 10
-188.526
 11
-187.165
 20
69.768
 21
69.273
  0
LINE
  8
0
 10
-187.165
 11
-186.056
 20
69.273
 21
68.342
  0
LINE
  8
0
 10
-186.056
 11
-185.332
 20
68.342
 21
67.088
  0
LINE
  8
0
 10
-185.332
 11
-185.081
 20
67.088
 21
65.662
  0
LINE
  8
0
 10
-185.081
 11
-185.332
 20
65.662
 21
64.237
  0
LINE
  8
0
 10
-185.332
 11
-186.056
 20
64.237
 21
62.983
  0
LINE
  8
0
 10
-186.056
 11
-187.165
 20
62.983
 21
62.052
  0
LINE
  8
0
 10
-187.165
 11
-188.526
 20
62.052
 21
61.557
  0
LINE
  8
0
 10
-188.526
 11
-189.974
 20
61.557
 21
61.557
  0
LINE
  8
0
 10
-189.974
 11
-191.335
 20
61.557
 21
62.052
  0
LINE
  8
0
 10
-191.335
 11
-192.444
 20
62.052
 21
62.983
  0
LINE
  8
0
 10
-192.444
 11
-193.168
 20
62.983
 21
64.237
  0
LINE
  8
0
 10
-193.168
 11
-193.419
 20
64.237
 21
65.662
  0
LINE
  8
0
 10
-164.169
 11
-163.918
 20
15
 21
16.426
  0
LINE
  8
0
 10
-163.918
 11
-163.194
 20
16.426
 21
17.68
  0
LINE
  8
0
 10
-163.194
 11
-162.085
 20
17.68
 21
18.611
  0
LINE
  8
0
 10
-162.085
 11
-160.724
 20
18.611
 21
19.106
  0
LINE
  8
0
 10
-160.724
 11
-159.276
 20
19.106
 21
19.106
  0
LINE
  8
0
 10
-159.276
 11
-157.915
 20
19.106
 21
18.611
  0
LINE
  8
0
 10
-157.915
 11
-156.806
 20
18.611
 21
17.68
  0
LINE
  8
0
 10
-156.806
 11
-156.082
 20
17.68
 21
16.426
  0
LINE
  8
0
 10
-156.082
 11
-155.831
 20
16.426
 21
15
  0
LINE
  8
0
 10
-155.831
 11
-156.082
 20
15
 21
13.574
  0
LINE
  8
0
 10
-156.082
 11
-156.806
 20
13.574
 21
12.32
  0
LINE
  8
0
 10
-156.806
 11
-157.915
 20
12.32
 21
11.389
  0
LINE
  8
0
 10
-157.915
 11
-159.276
 20
11.389
 21
10.894
  0
LINE
  8
0
 10
-159.276
 11
-160.724
 20
10.894
 21
10.894
  0
LINE
  8
0
 10
-160.724
 11
-162.085
 20
10.894
 21
11.389
  0
LINE
  8
0
 10
-162.085
 11
-163.194
 20
11.389
 21
12.32
  0
LINE
  8
0
 10
-163.194
 11
-163.918
 20
12.32
 21
13.574
  0
LINE
  8
0
 10
-163.918
 11
-164.169
 20
13.574
 21
15
  0
LINE
  8
0
 10
-55
 11
-55
 20
75.662
 21
272.791
  0
LINE
  8
0
 10
-55
 11
-54.971
 20
272.791
 21
274.323
  0
LINE
  8
0
 10
-54.971
 11
-54.883
 20
274.323
 21
275.853
  0
LINE
  8
0
 10
-54.883
 11
-54.736
 20
275.853
 21
277.378
  0
LINE
  8
0
 10
-54.736
 11
-54.531
 20
277.378
 21
278.897
  0
LINE
  8
0
 10
-54.531
 11
-54.268
 20
278.897
 21
280.407
  0
LINE
  8
0
 10
-54.268
 11
-53.948
 20
280.407
 21
281.905
  0
LINE
  8
0
 10
-53.948
 11
-53.57
 20
281.905
 21
283.39
  0
LINE
  8
0
 10
-53.57
 11
-53.136
 20
283.39
 21
284.86
  0
LINE
  8
0
 10
-53.136
 11
-52.646
 20
284.86
 21
286.312
  0
LINE
  8
0
 10
-52.646
 11
-52.1
 20
286.312
 21
287.744
  0
LINE
  8
0
 10
-52.1
 11
-51.5
 20
287.744
 21
289.154
  0
LINE
  8
0
 10
-51.5
 11
-50.847
 20
289.154
 21
290.54
  0
LINE
  8
0
 10
-50.847
 11
-50.14
 20
290.54
 21
291.9
  0
LINE
  8
0
 10
-50.14
 11
-49.383
 20
291.9
 21
293.232
  0
LINE
  8
0
 10
-49.383
 11
-48.575
 20
293.232
 21
294.534
  0
LINE
  8
0
 10
-48.575
 11
-47.717
 20
294.534
 21
295.804
  0
LINE
  8
0
 10
-47.717
 11
-46.812
 20
295.804
 21
297.04
  0
LINE
  8
0
 10
-46.812
 11
-45.86
 20
297.04
 21
298.241
  0
LINE
  8
0
 10
-45.86
 11
-44.862
 20
298.241
 21
299.404
  0
LINE
  8
0
 10
-44.862
 11
-43.821
 20
299.404
 21
300.528
  0
LINE
  8
0
 10
-43.821
 11
-42.737
 20
300.528
 21
301.612
  0
LINE
  8
0
 10
-42.737
 11
-41.613
 20
301.612
 21
302.653
  0
LINE
  8
0
 10
-41.613
 11
-40.45
 20
302.653
 21
303.651
  0
LINE
  8
0
 10
-40.45
 11
-39.249
 20
303.651
 21
304.603
  0
LINE
  8
0
 10
-39.249
 11
-38.013
 20
304.603
 21
305.508
  0
LINE
  8
0
 10
-38.013
 11
-36.743
 20
305.508
 21
306.366
  0
LINE
  8
0
 10
-36.743
 11
-35.441
 20
306.366
 21
307.174
  0
LINE
  8
0
 10
-35.441
 11
-34.109
 20
307.174
 21
307.931
  0
LINE
  8
0
 10
-34.109
 11
-32.749
 20
307.931
 21
308.638
  0
LINE
  8
0
 10
-32.749
 11
-31.363
 20
308.638
 21
309.291
  0
LINE
  8
0
 10
-31.363
 11
-29.953
 20
309.291
 21
309.891
  0
LINE
  8
0
 10
-29.953
 11
-28.521
 20
309.891
 21
310.437
  0
LINE
  8
0
 10
-28.521
 11
-27.069
 20
310.437
 21
310.927
  0
LINE
  8
0
 10
-27.069
 11
-25.599
 20
310.927
 21
311.361
  0
LINE
  8
0
 10
-25.599
 11
-24.114
 20
311.361
 21
311.739
  0
LINE
  8
0
 10
-24.114
 11
-22.616
 20
311.739
 21
312.059
  0
LINE
  8
0
 10
-22.616
 11
-21.106
 20
312.059
 21
312.322
  0
LINE
  8
0
 10
-21.106
 11
-19.587
 20
312.322
 21
312.527
  0
LINE
  8
0
 10
-19.587
 11
-18.062
 20
312.527
 21
312.674
  0
LINE
  8
0
 10
-18.062
 11
-16.532
 20
312.674
 21
312.762
  0
LINE
  8
0
 10
-16.532
 11
-15
 20
312.762
 21
312.791
  0
LINE
  8
0
 10
-15
 11
15
 20
312.791
 21
312.791
  0
LINE
  8
0
 10
15
 11
16.532
 20
312.791
 21
312.762
  0
LINE
  8
0
 10
16.532
 11
18.062
 20
312.762
 21
312.674
  0
LINE
  8
0
 10
18.062
 11
19.587
 20
312.674
 21
312.527
  0
LINE
  8
0
 10
19.587
 11
21.106
 20
312.527
 21
312.322
  0
LINE
  8
0
 10
21.106
 11
22.616
 20
312.322
 21
312.059
  0
LINE
  8
0
 10
22.616
 11
24.114
 20
312.059
 21
311.739
  0
LINE
  8
0
 10
24.114
 11
25.599
 20
311.739
 21
311.361
  0
LINE
  8
0
 10
25.599
 11
27.069
 20
311.361
 21
310.927
  0
LINE
  8
0
 10
27.069
 11
28.521
 20
310.927
 21
310.437
  0
LINE
  8
0
 10
28.521
 11
29.953
 20
310.437
 21
309.891
  0
LINE
  8
0
 10
29.953
 11
31.363
 20
309.891
 21
309.291
  0
LINE
  8
0
 10
31.363
 11
32.749
 20
309.291
 21
308.638
  0
LINE
  8
0
 10
32.749
 11
34.109
 20
308.638
 21
307.931
  0
LINE
  8
0
 10
34.109
 11
35.441
 20
307.931
 21
307.174
  0
LINE
  8
0
 10
35.441
 11
36.743
 20
307.174
 21
306.366
  0
LINE
  8
0
 10
36.743
 11
38.013
 20
306.366
 21
305.508
  0
LINE
  8
0
 10
38.013
 11
39.249
 20
305.508
 21
304.603
  0
LINE
  8
0
 10
39.249
 11
40.45
 20
304.603
 21
303.651
  0
LINE
  8
0
 10
40.45
 11
41.613
 20
303.651
 21
302.653
  0
LINE
  8
0
 10
41.613
 11
42.737
 20
302.653
 21
301.612
  0
LINE
  8
0
 10
42.737
 11
43.821
 20
301.612
 21
300.528
  0
LINE
  8
0
 10
43.821
 11
44.862
 20
300.528
 21
299.404
  0
LINE
  8
0
 10
44.862
 11
45.86
 20
299.404
 21
298.241
  0
LINE
  8
0
 10
45.86
 11
46.812
 20
298.241
 21
297.04
  0
LINE
  8
0
 10
46.812
 11
47.717
 20
297.04
 21
295.804
  0
LINE
  8
0
 10
47.717
 11
48.575
 20
295.804
 21
294.534
  0
LINE
  8
0
 10
48.575
 11
49.383
 20
294.534
 21
293.232
  0
LINE
  8
0
 10
49.383
 11
50.14
 20
293.232
 21
291.9
  0
LINE
  8
0
 10
50.14
 11
50.847
 20
291.9
 21
290.54
  0
LINE
  8
0
 10
50.847
 11
51.5
 20
290.54
 21
289.154
  0
LINE
  8
0
 10
51.5
 11
52.1
 20
289.154
 21
287.744
  0
LINE
  8
0
 10
52.1
 11
52.646
 20
287.744
 21
286.312
  0
LINE
  8
0
 10
52.646
 11
53.136
 20
286.312
 21
284.86
  0
LINE
  8
0
 10
53.136
 11
53.57
 20
284.86
 21
283.39
  0
LINE
  8
0
 10
53.57
 11
53.948
 20
283.39
 21
281.905
  0
LINE
  8
0
 10
53.948
 11
54.268
 20
281.905
 21
280.407
  0
LINE
  8
0
 10
54.268
 11
54.531
 20
280.407
 21
278.897
  0
LINE
  8
0
 10
54.531
 11
54.736
 20
278.897
 21
277.378
  0
LINE
  8
0
 10
54.736
 11
54.883
 20
277.378
 21
275.853
  0
LINE
  8
0
 10
54.883
 11
54.971
 20
275.853
 21
274.323
  0
LINE
  8
0
 10
54.971
 11
55
 20
274.323
 21
272.791
  0
LINE
  8
0
 10
55
 11
55
 20
272.791
 21
75.662
  0
LINE
  8
0
 10
55
 11
54.898
 20
75.662
 21
74.239
  0
LINE
  8
0
 10
54.898
 11
54.595
 20
74.239
 21
72.845
  0
LINE
  8
0
 10
54.595
 11
54.096
 20
72.845
 21
71.508
  0
LINE
  8
0
 10
54.096
 11
53.413
 20
71.508
 21
70.256
  0
LINE
  8
0
 10
53.413
 11
52.557
 20
70.256
 21
69.113
  0
LINE
  8
0
 10
52.557
 11
51.549
 20
69.113
 21
68.105
  0
LINE
  8
0
 10
51.549
 11
50.406
 20
68.105
 21
67.249
  0
LINE
  8
0
 10
50.406
 11
49.154
 20
67.249
 21
66.566
  0
LINE
  8
0
 10
49.154
 11
47.817
 20
66.566
 21
66.067
  0
LINE
  8
0
 10
47.817
 11
46.423
 20
66.067
 21
65.764
  0
LINE
  8
0
 10
46.423
 11
45
 20
65.764
 21
65.662
  0
LINE
  8
0
 10
45
 11
-45
 20
65.662
 21
65.662
  0
LINE
  8
0
 10
-45
 11
-46.423
 20
65.662
 21
65.764
  0
LINE
  8
0
 10
-46.423
 11
-47.817
 20
65.764
 21
66.067
  0
LINE
  8
0
 10
-47.817
 11
-49.154
 20
66.067
 21
66.566
  0
LINE
  8
0
 10
-49.154
 11
-50.406
 20
66.566
 21
67.249
  0
LINE
  8
0
 10
-50.406
 11
-51.549
 20
67.249
 21
68.105
  0
LINE
  8
0
 10
-51.549
 11
-52.557
 20
68.105
 21
69.113
  0
LINE
  8
0
 10
-52.557
 11
-53.413
 20
69.113
 21
70.256
  0
LINE
  8
0
 10
-53.413
 11
-54.096
 20
70.256
 21
71.508
  0
LINE
  8
0
 10
-54.096
 11
-54.595
 20
71.508
 21
72.845
  0
LINE
  8
0
 10
-54.595
 11
-54.898
 20
72.845
 21
74.239
  0
LINE
  8
0
 10
-54.898
 11
-55
 20
74.239
 21
75.662
  0
LINE
  8
0
 10
-33.356
 11
-33.356
 20
342.067
 21
343.515
  0
LINE
  8
0
 10
-33.356
 11
-32.861
 20
343.515
 21
344.875
  0
LINE
  8
0
 10
-32.861
 11
-31.93
 20
344.875
 21
345.984
  0
LINE
  8
0
 10
-31.93
 11
-30.676
 20
345.984
 21
346.708
  0
LINE
  8
0
 10
-30.676
 11
-29.25
 20
346.708
 21
346.96
  0
LINE
  8
0
 10
-29.25
 11
-27.824
 20
346.96
 21
346.708
  0
LINE
  8
0
 10
-27.824
 11
-26.57
 20
346.708
 21
345.984
  0
LINE
  8
0
 10
-26.57
 11
-25.639
 20
345.984
 21
344.875
  0
LINE
  8
0
 10
-25.639
 11
-25.144
 20
344.875
 21
343.515
  0
LINE
  8
0
 10
-25.144
 11
-25.144
 20
343.515
 21
342.067
  0
LINE
  8
0
 10
-25.144
 11
-25.639
 20
342.067
 21
340.706
  0
LINE
  8
0
 10
-25.639
 11
-26.57
 20
340.706
 21
339.597
  0
LINE
  8
0
 10
-26.57
 11
-27.824
 20
339.597
 21
338.873
  0
LINE
  8
0
 10
-27.824
 11
-29.25
 20
338.873
 21
338.621
  0
LINE
  8
0
 10
-29.25
 11
-30.676
 20
338.621
 21
338.873
  0
LINE
  8
0
 10
-30.676
 11
-31.93
 20
338.873
 21
339.597
  0
LINE
  8
0
 10
-31.93
 11
-32.861
 20
339.597
 21
340.706
  0
LINE
  8
0
 10
-32.861
 11
-33.356
 20
340.706
 21
342.067
  0
LINE
  8
0
 10
-15.106
 11
-15.106
 20
14.276
 21
15.724
  0
LINE
  8
0
 10
-15.106
 11
-14.611
 20
15.724
 21
17.085
  0
LINE
  8
0
 10
-14.611
 11
-13.68
 20
17.085
 21
18.194
  0
LINE
  8
0
 10
-13.68
 11
-12.426
 20
18.194
 21
18.918
  0
LINE
  8
0
 10
-12.426
 11
-11
 20
18.918
 21
19.169
  0
LINE
  8
0
 10
-11
 11
-10.641
 20
19.169
 21
19.106
  0
LINE
  8
0
 10
-10.641
 11
-8.359
 20
19.106
 21
19.106
  0
LINE
  8
0
 10
-8.359
 11
-8
 20
19.106
 21
19.169
  0
LINE
  8
0
 10
-8
 11
-6.574
 20
19.169
 21
18.918
  0
LINE
  8
0
 10
-6.574
 11
-5.32
 20
18.918
 21
18.194
  0
LINE
  8
0
 10
-5.32
 11
-4.389
 20
18.194
 21
17.085
  0
LINE
  8
0
 10
-4.389
 11
-3.894
 20
17.085
 21
15.724
  0
LINE
  8
0
 10
-3.894
 11
-3.894
 20
15.724
 21
14.276
  0
LINE
  8
0
 10
-3.894
 11
-4.389
 20
14.276
 21
12.915
  0
LINE
  8
0
 10
-4.389
 11
-5.32
 20
12.915
 21
11.806
  0
LINE
  8
0
 10
-5.32
 11
-6.574
 20
11.806
 21
11.082
  0
LINE
  8
0
 10
-6.574
 11
-8
 20
11.082
 21
10.831
  0
LINE
  8
0
 10
-8
 11
-8.359
 20
10.831
 21
10.894
  0
LINE
  8
0
 10
-8.359
 11
-10.641
 20
10.894
 21
10.894
  0
LINE
  8
0
 10
-10.641
 11
-11
 20
10.894
 21
10.831
  0
LINE
  8
0
 10
-11
 11
-12.426
 20
10.831
 21
11.082
  0
LINE
  8
0
 10
-12.426
 11
-13.68
 20
11.082
 21
11.806
  0
LINE
  8
0
 10
-13.68
 11
-14.611
 20
11.806
 21
12.915
  0
LINE
  8
0
 10
-14.611
 11
-15.106
 20
12.915
 21
14.276
  0
LINE
  8
0
 10
25.144
 11
25.144
 20
342.067
 21
343.515
  0
LINE
  8
0
 10
25.144
 11
25.639
 20
343.515
 21
344.875
  0
LINE
  8
0
 10
25.639
 11
26.57
 20
344.875
 21
345.984
  0
LINE
  8
0
 10
26.57
 11
27.824
 20
345.984
 21
346.708
  0
LINE
  8
0
 10
27.824
 11
29.25
 20
346.708
 21
346.96
  0
LINE
  8
0
 10
29.25
 11
30.676
 20
346.96
 21
346.708
  0
LINE
  8
0
 10
30.676
 11
31.93
 20
346.708
 21
345.984
  0
LINE
  8
0
 10
31.93
 11
32.861
 20
345.984
 21
344.875
  0
LINE
  8
0
 10
32.861
 11
33.356
 20
344.875
 21
343.515
  0
LINE
  8
0
 10
33.356
 11
33.356
 20
343.515
 21
342.067
  0
LINE
  8
0
 10
33.356
 11
32.861
 20
342.067
 21
340.706
  0
LINE
  8
0
 10
32.861
 11
31.93
 20
340.706
 21
339.597
  0
LINE
  8
0
 10
31.93
 11
30.676
 20
339.597
 21
338.873
  0
LINE
  8
0
 10
30.676
 11
29.25
 20
338.873
 21
338.621
  0
LINE
  8
0
 10
29.25
 11
27.824
 20
338.621
 21
338.873
  0
LINE
  8
0
 10
27.824
 11
26.57
 20
338.873
 21
339.597
  0
LINE
  8
0
 10
26.57
 11
25.639
 20
339.597
 21
340.706
  0
LINE
  8
0
 10
25.639
 11
25.144
 20
340.706
 21
342.067
  0
LINE
  8
0
 10
155.831
 11
156.082
 20
15
 21
16.426
  0
LINE
  8
0
 10
156.082
 11
156.806
 20
16.426
 21
17.68
  0
LINE
  8
0
 10
156.806
 11
157.915
 20
17.68
 21
18.611
  0
LINE
  8
0
 10
157.915
 11
159.276
 20
18.611
 21
19.106
  0
LINE
  8
0
 10
159.276
 11
160.724
 20
19.106
 21
19.106
  0
LINE
  8
0
 10
160.724
 11
162.085
 20
19.106
 21
18.611
  0
LINE
  8
0
 10
162.085
 11
163.194
 20
18.611
 21
17.68
  0
LINE
  8
0
 10
163.194
 11
163.918
 20
17.68
 21
16.426
  0
LINE
  8
0
 10
163.918
 11
164.169
 20
16.426
 21
15
  0
LINE
  8
0
 10
164.169
 11
163.918
 20
15
 21
13.574
  0
LINE
  8
0
 10
163.918
 11
163.194
 20
13.574
 21
12.32
  0
LINE
  8
0
 10
163.194
 11
162.085
 20
12.32
 21
11.389
  0
LINE
  8
0
 10
162.085
 11
160.724
 20
11.389
 21
10.894
  0
LINE
  8
0
 10
160.724
 11
159.276
 20
10.894
 21
10.894
  0
LINE
  8
0
 10
159.276
 11
157.915
 20
10.894
 21
11.389
  0
LINE
  8
0
 10
157.915
 11
156.806
 20
11.389
 21
12.32
  0
LINE
  8
0
 10
156.806
 11
156.082
 20
12.32
 21
13.574
  0
LINE
  8
0
 10
156.082
 11
155.831
 20
13.574
 21
15
  0
LINE
  8
0
 10
185.081
 11
185.332
 20
65.662
 21
67.088
  0
LINE
  8
0
 10
185.332
 11
186.056
 20
67.088
 21
68.342
  0
LINE
  8
0
 10
186.056
 11
187.165
 20
68.342
 21
69.273
  0
LINE
  8
0
 10
187.165
 11
188.526
 20
69.273
 21
69.768
  0
LINE
  8
0
 10
188.526
 11
189.974
 20
69.768
 21
69.768
  0
LINE
  8
0
 10
189.974
 11
191.335
 20
69.768
 21
69.273
  0
LINE
  8
0
 10
191.335
 11
192.444
 20
69.273
 21
68.342
  0
LINE
  8
0
 10
192.444
 11
193.168
 20
68.342
 21
67.088
  0
LINE
  8
0
 10
193.168
 11
193.419
 20
67.088
 21
65.662
  0
LINE
  8
0
 10
193.419
 11
193.168
 20
65.662
 21
64.237
  0
LINE
  8
0
 10
193.168
 11
192.444
 20
64.237
 21
62.983
  0
LINE
  8
0
 10
192.444
 11
191.335
 20
62.983
 21
62.052
  0
LINE
  8
0
 10
191.335
 11
189.974
 20
62.052
 21
61.557
  0
LINE
  8
0
 10
189.974
 11
188.526
 20
61.557
 21
61.557
  0
LINE
  8
0
 10
188.526
 11
187.165
 20
61.557
 21
62.052
  0
LINE
  8
0
 10
187.165
 11
186.056
 20
62.052
 21
62.983
  0
LINE
  8
0
 10
186.056
 11
185.332
 20
62.983
 21
64.237
  0
LINE
  8
0
 10
185.332
 11
185.081
 20
64.237
 21
65.662
  0
ENDSEC
  0
SECTION
  2
OBJECTS
  0
DICTIONARY
  0
ENDSEC
  0
EOF
